<mxfile host="app.diagrams.net" modified="2023-09-27T18:00:48.053Z" agent="Mozilla/5.0 (Windows NT 10.0; Win64; x64) AppleWebKit/537.36 (KHTML, like Gecko) Chrome/117.0.0.0 Safari/537.36" version="21.7.4" etag="2xteG2GL_e29DIBRGECi" type="github">
  <diagram name="PÃ¡gina-1" id="wPbnEQzzGVescDIKLbmf">
    <mxGraphModel>
      <root>
        <mxCell id="0" />
        <mxCell id="1" parent="0" />
      </root>
    </mxGraphModel>
  </diagram>
</mxfile>
